/* XPM */
static char *magick[] = {
/* columns rows colors chars-per-pixel */
"32 32 252 2",
"   c #000406",
".  c #000508",
"X  c #030b0e",
"o  c #06110f",
"O  c #0c1412",
"+  c #121d1a",
"@  c #1b1f1d",
"#  c #161c16",
"$  c #1e251b",
"%  c #1a2523",
"&  c #222319",
"*  c #272a1d",
"=  c #222725",
"-  c #212822",
";  c #252e2d",
":  c #2c2e23",
">  c #283227",
",  c #2d322e",
"<  c #34362d",
"1  c #35392a",
"2  c #3c3e2b",
"3  c #363526",
"4  c #283838",
"5  c #3c4235",
"6  c #3e453b",
"7  c #444334",
"8  c #474837",
"9  c #45493a",
"0  c #484731",
"q  c #4c4e3d",
"w  c #41443e",
"e  c #54543e",
"r  c #5c593f",
"t  c #434b41",
"y  c #4f534f",
"u  c #4e5142",
"i  c #4f5454",
"p  c #565641",
"a  c #565646",
"s  c #515343",
"d  c #54564b",
"f  c #555846",
"g  c #565a4d",
"h  c #5a5c46",
"j  c #5d5d46",
"k  c #595a45",
"l  c #5a5b49",
"z  c #5a5d49",
"x  c #5a5d4d",
"c  c #5d5e4a",
"v  c #5d5e4d",
"b  c #5a5b4e",
"n  c #5a5542",
"m  c #525655",
"M  c #515753",
"N  c #505558",
"B  c #555952",
"V  c #5a5d52",
"C  c #5e5e51",
"Z  c #5b5c54",
"A  c #5d5e59",
"S  c #555a5d",
"D  c #5f614a",
"F  c #5e614e",
"G  c #5d6055",
"H  c #5e625b",
"J  c #5a6268",
"K  c #5b6062",
"L  c #5e6973",
"P  c #615e44",
"I  c #615e4b",
"U  c #61604a",
"Y  c #61614d",
"T  c #65644e",
"R  c #67634b",
"E  c #68644c",
"W  c #626251",
"Q  c #626450",
"!  c #646552",
"~  c #656656",
"^  c #626456",
"/  c #616259",
"(  c #61655c",
")  c #656559",
"_  c #63645c",
"`  c #666855",
"'  c #66695d",
"]  c #66695a",
"[  c #696752",
"{  c #6e6955",
"}  c #6c6b5c",
"|  c #6f705c",
" . c #706b55",
".. c #706d5f",
"X. c #75725d",
"o. c #626461",
"O. c #636768",
"+. c #666b67",
"@. c #636a6b",
"#. c #6b6d66",
"$. c #6e6d62",
"%. c #6b6b63",
"&. c #6b6c6a",
"*. c #626a70",
"=. c #6d7065",
"-. c #6f716d",
";. c #6d7173",
":. c #6d757c",
">. c #64737f",
",. c #726f63",
"<. c #706f6a",
"1. c #737263",
"2. c #75756a",
"3. c #75766e",
"4. c #72736a",
"5. c #7b7761",
"6. c #78766a",
"7. c #797966",
"8. c #7c7c6b",
"9. c #737475",
"0. c #757572",
"q. c #73777b",
"w. c #757b77",
"e. c #757a7c",
"r. c #7b7b74",
"t. c #7a7d7e",
"y. c #7c7d7d",
"u. c #7a7b7a",
"i. c #6e7782",
"p. c #6c7c89",
"a. c #757b81",
"s. c #797e82",
"d. c #7d7e81",
"f. c #7a7d85",
"g. c #7d7f8b",
"h. c #7f8071",
"j. c #7e807a",
"k. c #7e8181",
"l. c #7e8285",
"z. c #7a8183",
"x. c #7d818a",
"c. c #7e858e",
"v. c #7c848b",
"b. c #7e8691",
"n. c #7b8692",
"m. c #7e8893",
"M. c #7f8a96",
"N. c #7e8d98",
"B. c #817f6b",
"V. c #807f70",
"C. c #858574",
"Z. c #84857c",
"A. c #8a8772",
"S. c #89897d",
"D. c #8b8d7d",
"F. c #858b7d",
"G. c #8d927e",
"H. c #91937f",
"J. c #828384",
"K. c #82858d",
"L. c #81848a",
"P. c #85898c",
"I. c #8c8d82",
"U. c #868b86",
"Y. c #828791",
"T. c #828892",
"R. c #828a95",
"E. c #858b94",
"W. c #858b92",
"Q. c #858e99",
"!. c #888e96",
"~. c #898b93",
"^. c #888e99",
"/. c #8e9183",
"(. c #8c918b",
"). c #8c939c",
"_. c #8a9194",
"`. c #939484",
"'. c #94968b",
"]. c #979986",
"[. c #969889",
"{. c #959a8d",
"}. c #9a9b86",
"|. c #989a8a",
" X c #989a8d",
".X c #9a9d8e",
"XX c #9b9c8b",
"oX c #919290",
"OX c #969c93",
"+X c #9a9e90",
"@X c #9b9d92",
"#X c #969e9b",
"$X c #8d95a3",
"%X c #9299a4",
"&X c #939ba9",
"*X c #9a9fad",
"=X c #9da194",
"-X c #9fa29c",
";X c #9ca2ae",
":X c #9ca3ad",
">X c #99a3a8",
",X c #9ea5b2",
"<X c #9fa9b5",
"1X c #9facb5",
"2X c #a1a495",
"3X c #a3a59b",
"4X c #a6a99c",
"5X c #a9aa9e",
"6X c #a7aca2",
"7X c #a4abae",
"8X c #aaada4",
"9X c #a8afae",
"0X c #a0a7b4",
"qX c #a0a6b0",
"wX c #a1aab6",
"eX c #a3acb3",
"rX c #a3adb9",
"tX c #a4aebb",
"yX c #acb1a3",
"uX c #acb4aa",
"iX c #a6b1ba",
"pX c #a6b1bd",
"aX c #a2b0b8",
"sX c #acb4b5",
"dX c #aab5be",
"fX c #aab4bb",
"gX c #aeb9b2",
"hX c #afb8ba",
"jX c #b0b6a7",
"kX c #b1b5aa",
"lX c #b4b9ad",
"zX c #b5beb4",
"xX c #b3bcbc",
"cX c #b8beb7",
"vX c #a7b5c0",
"bX c #abb6c1",
"nX c #adb9c3",
"mX c #b3bdc2",
"MX c #b1bfca",
"NX c #b7c1bc",
"BX c #bac4bd",
"VX c #b2c0cb",
"CX c #bec7c4",
"ZX c #b8c4cf",
"AX c #b4c0c5",
"SX c #c0c7bf",
"DX c #c5cdc4",
"FX c #c0cbc8",
"GX c #c4d2cf",
"HX c #cddad7",
"JX c #d5e7e1",
"KX c #d8e3e2",
/* pixels */
"0XwXwXwXrXrXrXiXiXdXdXbXbXbXdXdX>X7XiXpXdXpXpXpXiXrXrXwX<X<X<XwX",
"tXtXtXpXpXpXvXnXVXZXVXVXVXVXMXVX9XsXnXnXnXbXbXpXiXeXeX,X,X:X;X;X",
"<XrXrXrXtXvXmXFXJXKXGXzXgXzXgXgXzXNXNXxXxXAXAXdXdXiXrXwXwX;X;X*X",
",X<X1XwXpXhXcXuX8X{.'.h.2.1.} | B.G.D.G.[.'.4X6XuXxXhXhXeX0X,X;X",
",X:X<XrXiX8X@X[.I.D.C.R F ^ ^ ) ^ W Y ~ ` ` } X.7.D.4XkXjX9X0X;X",
"mXAX7XhXU.8.C.D.D.C.X.C A / ( / C f C C G W v l l ` S.=X3X=XqX,X",
"OX(.r.e./ W 5.8.2.] F V A A _ _ Z u A H H o.H C n 7.S.C.S.C.8.&X",
"/ w.uXiXv.d ] ] v f a V G ) ( ) / a ) _ / / H Z I ` ] C W [ s ).",
"#.@.4.-XaX+.G d d V Z ^ ) ' $.$.$.[ } #.%.' _ / x f l f l A !.&X",
"w.;.O.L q.Z d d A A ' ,.,.6.1.,.1. .} 1.$.,.$.' ^ A Z g q.$X>X%X",
"w.9.=.+.@.K A G C ' 5XlX8XzXI.6.8.{ ,.6.,.$.$.1.<.' ) / &.^.&X&X",
"q.0.0.9.y.-.o._ g ! ~ !  . .S./.S.5XkX@XZ.S.`.2XXXV.%.$.<.c.&X&X",
"L.s.u.u.t.0.-.#._ X.j 1./ s  X3X@X/.I.[.OXuXA.X.E I $.=.<.d.).&X",
"Y.E.Y.T.K.u.0.#._ C.X.D.4 o D.5X5X2X5X XC.kXS.t ~ P 4.4.2.u.Q.).",
"K.E.W.T.c.k.u.-.$.|.A.I.X ,  X'.oX5X5XyX-XgX' . 7. .4.2.3.r.P.).",
"L.^.^.!._.J.&.Z y.8X@XCX(.,.zXNXcXNXcXBXDXHXZ.+ 8.5.1.8.3.u.J.~.",
"J.P._.^.W.k.j.j.oX6X8XCXlXyXuXkXzXDXDXBXBXSXlX`.].C.$.4.3.r.J.K.",
"k.J.J.P.J.y.U.2X@X.X|.[.[.{.|.[.|..X=X.X.X'..XjXyX`.Z.I.S.r.W.).",
"d.y.k.k.J.w.Z.=XXX+X+X+X+X+X+X.X|..X X[. X[.`.`./.`.|..XC.0.J.W.",
"z.d.t.d.s.9.Z.].H.`.`.`.H.].].XXXX].|.XX[.[. X.X X X{.|.r.0.J.K.",
"l.k.z.z.t.e.' c D D D c D D U Y W Y W Y U I } 8.8.7.h.`.V.4.y.k.",
"W.L.L.v.k.t.x p ^ v a a l I Y F W T ! ! ! U U U U j c T ~ 9.y.d.",
"T.R.T.b.x.f.x l v v c v F F F W c 1 q 5 3 r 0 j Y e T U ' u.d.l.",
"R.R.T.T.m.z.v l v F F F v v D W 9   6 * % e $ < & + c Y $.u.d.L.",
"E.T.T.Y.c.c.v l F c x v F v v ! 8 & D * 5 q $ d : 9 c Y w.s.l.K.",
"E.E.W.Y.b.v.l p c l D v v v F ! 5 ; F + t 5 $ s o w T ! e.l.c.K.",
"E.Q.T.b.M.i.f p v x F c v v F F $ = 7 $ f & < 7 # l h %.f.f.x.x.",
"Q.R.c.n.M.@.s x x c F v c F v F * 5 9 > x $ 6 6 ; x h +.a.e.f.d.",
"R.b.c.v.M.@.e c l c l c l l j d + < , O > o 2 ! W f l ;.e.a.f.g.",
"b.b.b.M.N.q.g x x c h p p p p k f l V V c t x Y D l C ;.q.a.z.x.",
"c.Y.c.b.M.n.p.i.L m y m B m m B m g B B V b b V V C +.:.e.f.g.c.",
"m.m.m.b.n.v.i.L J S N i m N B m N B m m m m M m Z o.&.;.q.f.g.x."
};
