/* XPM */
static char *magick[] = {
/* columns rows colors chars-per-pixel */
"32 32 256 2",
"   c #070612",
".  c #040b15",
"X  c #060d1d",
"o  c #070719",
"O  c #0f1117",
"+  c #0c121e",
"@  c #140d15",
"#  c #14141b",
"$  c #1c181f",
"%  c #090c22",
"&  c #0d1423",
"*  c #0f1429",
"=  c #120a22",
"-  c #121323",
";  c #161b2c",
":  c #1b1d2b",
">  c #1c1b24",
",  c #181931",
"<  c #1d2029",
"1  c #1b2034",
"2  c #251f20",
"3  c #251c26",
"4  c #241e34",
"5  c #272127",
"6  c #25242d",
"7  c #2b2424",
"8  c #2d2628",
"9  c #252631",
"0  c #24253b",
"q  c #2c2635",
"w  c #2b243b",
"e  c #2d2a3b",
"r  c #352727",
"t  c #372b27",
"y  c #342b2b",
"u  c #39333c",
"i  c #353336",
"p  c #352a38",
"a  c #2c2b41",
"s  c #2d2643",
"d  c #293043",
"f  c #312d41",
"g  c #333245",
"h  c #3f3649",
"j  c #3e3a45",
"k  c #3d3e4c",
"l  c #383448",
"z  c #48392e",
"x  c #42373e",
"c  c #453e3d",
"v  c #533f3a",
"b  c #413b47",
"n  c #443d49",
"m  c #49443d",
"M  c #52463e",
"N  c #44424b",
"B  c #4f4440",
"V  c #4b434c",
"C  c #4b4c4d",
"Z  c #454151",
"A  c #4f4d52",
"S  c #4d495a",
"D  c #474651",
"F  c #554a49",
"G  c #524b54",
"H  c #524a5b",
"J  c #524754",
"K  c #56504f",
"L  c #5d524a",
"P  c #565455",
"I  c #55515c",
"U  c #5a555c",
"Y  c #5e5a5e",
"T  c #4e4a61",
"R  c #514e65",
"E  c #565767",
"W  c #5c5462",
"Q  c #5e5769",
"!  c #5b5b68",
"~  c #61524b",
"^  c #6d5c4f",
"/  c #665955",
"(  c #695756",
")  c #645757",
"_  c #615767",
"`  c #635d63",
"'  c #605b68",
"]  c #6c6359",
"[  c #77665d",
"{  c #7b6c5e",
"}  c #63636b",
"|  c #6c646c",
" . c #6c6c6e",
".. c #6b6161",
"X. c #666875",
"o. c #606a7e",
"O. c #6b6572",
"+. c #6a6d74",
"@. c #6e6b7b",
"#. c #726765",
"$. c #776966",
"%. c #766b69",
"&. c #716670",
"*. c #736b73",
"=. c #786e74",
"-. c #7b6e7c",
";. c #7e7265",
":. c #7d746a",
">. c #7c7474",
",. c #75727a",
"<. c #7a7789",
"1. c #7c7b85",
"2. c #787481",
"3. c #876f5c",
"4. c #886f5a",
"5. c #84766a",
"6. c #887569",
"7. c #81747b",
"8. c #857b7c",
"9. c #887a7d",
"0. c #8a7e75",
"q. c #827781",
"w. c #827b85",
"e. c #817f8a",
"r. c #887b86",
"t. c #92806a",
"y. c #958174",
"u. c #92837c",
"i. c #988677",
"p. c #98877c",
"a. c #988a7d",
"s. c #a28c7c",
"d. c #86818c",
"f. c #8c8384",
"g. c #8b838c",
"h. c #8e888e",
"j. c #8c8994",
"k. c #928289",
"l. c #948984",
"z. c #998a89",
"x. c #938b93",
"c. c #9a8d95",
"v. c #9b8e9b",
"b. c #979195",
"n. c #969398",
"m. c #9d9494",
"M. c #9598a1",
"N. c #9c94a2",
"B. c #9f9da5",
"V. c #a18d84",
"C. c #a39285",
"Z. c #a7958d",
"A. c #a3938a",
"S. c #a9968e",
"D. c #ab9a8e",
"F. c #a6988c",
"G. c #a39a9c",
"H. c #a99791",
"J. c #aa9991",
"K. c #ad9992",
"L. c #ad9b95",
"P. c #ae9d96",
"I. c #aa9b95",
"U. c #ac9e9a",
"Y. c #a29390",
"T. c #b49e8c",
"R. c #b19e96",
"E. c #b29c93",
"W. c #b19e99",
"Q. c #b59f98",
"!. c #aca195",
"~. c #ada19d",
"^. c #afa099",
"/. c #b9a38f",
"(. c #b2a097",
"). c #b6a094",
"_. c #b2a29a",
"`. c #b5a39a",
"'. c #b5a39d",
"]. c #b5a49b",
"[. c #b6a59e",
"{. c #b2a49c",
"}. c #b6a99e",
"|. c #b2a89e",
" X c #b8a795",
".X c #b9a59b",
"XX c #baa69e",
"oX c #b8a29b",
"OX c #bda997",
"+X c #baa99e",
"@X c #bcab9d",
"#X c #aea3a3",
"$X c #aea5ac",
"%X c #aaa5a8",
"&X c #b4a5a2",
"*X c #b7a9a1",
"=X c #b5a9a5",
"-X c #b7aaa8",
";X c #baa6a1",
":X c #b9a9a2",
">X c #b9aaa5",
",X c #baaca3",
"<X c #baaca5",
"1X c #bdaaa2",
"2X c #bdaea6",
"3X c #bdaca3",
"4X c #baafae",
"5X c #bdaea9",
"6X c #baabaa",
"7X c #b7acb4",
"8X c #beb0a6",
"9X c #beb1aa",
"0X c #bdb2ac",
"qX c #bdb1b1",
"wX c #bdb2b5",
"eX c #beb8b8",
"rX c #b7b5b4",
"tX c #c1ab9a",
"yX c #c0ab96",
"uX c #c1afa5",
"iX c #c0afad",
"pX c #c5b2a5",
"aX c #c3b3a5",
"sX c #c2b2a9",
"dX c #c5b3aa",
"fX c #c4b5ac",
"gX c #c7b9ae",
"hX c #c9b6a5",
"jX c #c8b5ab",
"kX c #ccb9ae",
"lX c #c1b5b1",
"zX c #c3b4b2",
"xX c #c6b9b1",
"cX c #c4bbbb",
"vX c #cbb7b2",
"bX c #cabbb4",
"nX c #cabcbb",
"mX c #c2b5b8",
"MX c #d1bcaa",
"NX c #d2bfb4",
"BX c #c6bec1",
"VX c #cabdc0",
"CX c #ccc2bb",
"ZX c #d4c9bb",
"AX c #cac2c5",
"SX c #cbc9cc",
"DX c #cfccd0",
"FX c #d0c7c4",
"GX c #d4cccd",
"HX c #d2cfd2",
"JX c #d9d5d2",
"KX c #d9d3d6",
"LX c #ebecee",
"PX c #f6f0f1",
"IX c #fcfdf5",
"UX c #fffffc",
/* pixels */
"].].].].'._._.'.'.`.`.]._.Q.Q.`.W.R.R.R.R.R.R.R.L.L.L.K.J.S.Z.Z.",
";X;X;XoXoXoXQ.(.'.].].1X.X).).`.Q.K.L.E.E.E.E.R.R.K.K.L.L.K.J.Z.",
"'.oXXX2Xm.G.:X+X'.2X2X~._.XX_._.`.@X*XXXR.E.R.Q..X(.D.Z.H.H.D.Z.",
"'.:X+XG Q O.q.9X+X{.W g _ &X+XXX_.` E g.6XE.;XS.` x.'.P.K.Z.H.S.",
"&XaX:.& } Z e 6XjX] & ,.O.H <XtXc ; } k G.1Xz.# - g 2.'.L.V.S.S.",
"].aX[ + D < : 6XpXB X  .W o J.MXi * 8.e I kX{ X  .V g ~.E.A.H.S.",
"+X3XD.t > . n sXjX;.3 1.j J 2XtXt 9 P : -.hX3.9 e i l #XP.J.L.S.",
"*X@X@Xi.) ) Y.<X:XE.( u F U.3XXX6.y $ V ~.@Xs.7 . X e.=XK.L.K.J.",
":X;X+XaXuXdX1X;X+X2XpXjXjX<X].+XaXD.V.dX].{.pXu.$.0.`.R.K.L.H.J.",
":X:X:X<X5X'.2X@XXX<XfX&X&X1X`.].+X3X2X<X].W._.1XvXpXQ.W.L.K.J.I.",
":X1XaX%.| -.z.zX1X:X#.u ` &X:XuXXX#.W q.&X'.XXS...| #X].P.K.K.D.",
":XjXu.0 @.n.l #XvX5.- ,.=.W {.pX~ % @.| 7.uXT.y % 0 R &XR.L.H.K.",
"<XxX[ 0 N.b.a c.CX5.* d.| s lXOXi 1 *.W T fX4.o o.>.0 x.oXK.S.L.",
"<XfXp.9 a N g qXkX;.> j 6 w -XyXM q C j E xX4.@ d A ; b.'.L.K.L.",
":X:XaX0.V G m.sXuX X/ 7 8 f.sXaXs.7   e %X3XOX~ O - N -X_.L.J.E.",
"<X<X5XaXiX9XsX*X<XsXaX,XsXdX2X:XjXD.$.~.3X].+XV.;.9.&X].R.L.L.L.",
":X2X<XsX9X2XsX:X*X<XfXbXsX:X:X;X:XsXNXpX].].].:XjX2X.X(._.R.L.L.",
"<X<XfXl.g.m.G.sX<XjXI.>.r.&X<X:XuXF.) z.5XXX;X:XA.7.&X].R.R.L.L.",
"<XsXD.n d.7X-.<XvXA.q S r.k.5XaXt.2 w Q 8.}.aX^ 3 w I m._.R.P.L.",
"<XbX5.f O.m.T 7.ZX5.= @.x.g.4XaXz & <.g.H U.).r U ! &.*.<XR.P.L.",
"5XbX:.9 X.N a c.CX6.f +.| R 4XaXM 0 M.*.w #XOXx ,.+.! O.2XP.K.L.",
"9XxX|.Y N j ' AXxX!.Y b e ! 0XhXy.5 < ; ,.9XaXF < & 4 h.+XP.K.K.",
"qXzXlXCXm.l.bXxX5XxXI.8.f.fX8X<X@Xl.K ,.9X,X8XC.m 5 h.4X(.^.R.P.",
"wXmXcXcXCXxX9XqXqXiXxXnXvX2X<X:X:XjXjXfX}.&X].9X}.!.2X{.R.R.I.I.",
"BXSXSXVXCXcXqXzX5XxXdXbXzX,X<X<X9X8X,X*XfX;X].{.{.{.`.^.W.R.I.J.",
"AXDXAX=.&.r.c.bXwXgX~ h H k.sX9X@XL @ 4 f.,X].]._.W._._.(.R.K.L.",
"BXDXm.V e.n._ $XFXp.q H d.N.U.gX6.- } <.2.*X].].'._._.~.R.P.P.L.",
"HXLXn.p B.rXH q.JX0.j *.%XN.=.bX6.Z 1.j.KXnX_.'.{._._.W.P.P.P.L.",
"LXUXJX=.` | V $XGXf.N H I H G.vXy.9 ! O.H &X_.'._._.R.R.P.P.P.L.",
"IXUXIXl.K b x.BXCXnXP u 9 e.9X5X+Xm # ; e.,X(.(._.(.(.(.P.P.P.L.",
"IXIXUXPXcXeXCXmXVXxX0XlXqXlX5X<X2X8X9X=X+X;X].].].'.~.P.~.P.J.I.",
"IXIXIXJX%X~.U.W.~.U.U.I.I.I.I.I.J.J.H.J.J.H.A.V.A.A.A.S.Z.Z.Z.J."
};
