/* XPM */
static char *magick[] = {
/* columns rows colors chars-per-pixel */
"32 24 253 2",
"   c #3c271a",
".  c #3e2813",
"X  c #373d3a",
"o  c #3b3a32",
"O  c #3c3d38",
"+  c #333a33",
"@  c #3e423e",
"#  c #3b423b",
"$  c #3e4640",
"%  c #41210e",
"&  c #482616",
"*  c #482d21",
"=  c #414335",
"-  c #46473e",
";  c #41443a",
":  c #6b473f",
">  c #6e4b39",
",  c #704737",
"<  c #715038",
"1  c #464942",
"2  c #444e4b",
"3  c #414d4f",
"4  c #4d4e46",
"5  c #4a4c41",
"6  c #4b4e4c",
"7  c #4f5347",
"8  c #495046",
"9  c #4a5149",
"0  c #4e534d",
"q  c #4d5452",
"w  c #504f48",
"e  c #505245",
"r  c #51544b",
"t  c #53594f",
"y  c #525651",
"u  c #515554",
"i  c #525758",
"p  c #525951",
"a  c #555a51",
"s  c #545b55",
"d  c #56595a",
"f  c #565e59",
"g  c #555b5e",
"h  c #585b52",
"j  c #595d53",
"k  c #5a5e56",
"l  c #5c5f57",
"z  c #595a56",
"x  c #5a5e59",
"c  c #5c5f5b",
"v  c #595f64",
"b  c #56615c",
"n  c #5e6157",
"m  c #5a6159",
"M  c #5a625e",
"N  c #5e615a",
"B  c #5c615c",
"V  c #5e655d",
"C  c #5b6662",
"Z  c #5e6661",
"A  c #5e6564",
"S  c #5e6360",
"D  c #5a656a",
"F  c #5e6864",
"G  c #5f6862",
"H  c #62595b",
"J  c #7d4e49",
"K  c #724544",
"L  c #656657",
"P  c #61635b",
"I  c #62645d",
"U  c #6a675d",
"Y  c #616661",
"T  c #616666",
"R  c #656762",
"E  c #626962",
"W  c #626965",
"Q  c #656962",
"!  c #666a65",
"~  c #636c66",
"^  c #60696a",
"/  c #636d6c",
"(  c #666a69",
")  c #656d69",
"_  c #646d6c",
"`  c #696b67",
"'  c #6b6e65",
"]  c #696e69",
"[  c #6a6e6d",
"{  c #6d6f6b",
"}  c #6d6e6c",
"|  c #666e72",
" . c #686f72",
".. c #667069",
"X. c #6d7667",
"o. c #6a7069",
"O. c #6a716d",
"+. c #6e736d",
"@. c #6e746d",
"#. c #657174",
"$. c #697172",
"%. c #6e7472",
"&. c #6e7576",
"*. c #6c7373",
"=. c #6d7679",
"-. c #706b63",
";. c #72766e",
":. c #777f6f",
">. c #727675",
",. c #717571",
"<. c #737778",
"1. c #727875",
"2. c #767975",
"3. c #72797a",
"4. c #727a7d",
"5. c #767a7a",
"6. c #777d7c",
"7. c #737b7d",
"8. c #7a7d75",
"9. c #797d79",
"0. c #797e7e",
"q. c #7c7f7d",
"w. c #7c7b7a",
"e. c #757e83",
"r. c #767c83",
"t. c #797d81",
"y. c #76827d",
"u. c #7d8276",
"i. c #7a817a",
"p. c #7b817e",
"a. c #7c807b",
"s. c #7d837e",
"d. c #768181",
"f. c #798383",
"g. c #798185",
"h. c #7e8382",
"j. c #7e8587",
"k. c #7d8483",
"l. c #7e8887",
"z. c #7d8988",
"x. c #8b6d57",
"c. c #826b62",
"v. c #847d73",
"b. c #81867e",
"n. c #90827c",
"m. c #9f837e",
"M. c #a18369",
"N. c #808582",
"B. c #818685",
"V. c #828482",
"C. c #858986",
"Z. c #848a85",
"A. c #82898a",
"S. c #828b8d",
"D. c #868a89",
"F. c #868d8a",
"G. c #868e8e",
"H. c #828d8c",
"J. c #8a8f88",
"K. c #898e8d",
"L. c #8c8c83",
"P. c #868e90",
"I. c #838e93",
"U. c #8d8e94",
"Y. c #86908e",
"T. c #8a918e",
"R. c #8b918a",
"E. c #859092",
"W. c #879295",
"Q. c #849298",
"!. c #899292",
"~. c #8a9295",
"^. c #8a9596",
"/. c #8d9394",
"(. c #8f9693",
"). c #8d9493",
"_. c #8e9799",
"`. c #8a939b",
"'. c #8f9997",
"]. c #8f9893",
"[. c #8d999c",
"{. c #938680",
"}. c #918f87",
"|. c #9e938c",
" X c #919694",
".X c #91979a",
"XX c #919997",
"oX c #919999",
"OX c #929d9e",
"+X c #949a9a",
"@X c #979d9a",
"#X c #949d9d",
"$X c Gray60",
"%X c #8e9aa0",
"&X c #969ea1",
"*X c #979ea4",
"=X c #929fa4",
"-X c #9b9fa2",
";X c #96a19f",
":X c #99a097",
">X c #9aa19c",
",X c #96a3a5",
"<X c #96a1a2",
"1X c #99a2a1",
"2X c #99a3a7",
"3X c #9aa5a6",
"4X c #9ca5a4",
"5X c #99a5a9",
"6X c #9ca7aa",
"7X c #9ca7ac",
"8X c #9da8aa",
"9X c #9eaaae",
"0X c #9caaac",
"qX c #9daab1",
"wX c #9cacb2",
"eX c #9eb2b8",
"rX c #a18c84",
"tX c #a59e9c",
"yX c #a1a7a6",
"uX c #a0aba4",
"iX c #a7aeae",
"pX c #a4abad",
"aX c #a8aca5",
"sX c #a1adb1",
"dX c #a2aeb4",
"fX c #a8b2ae",
"gX c #a5b1b6",
"hX c #a4b6b7",
"jX c #a2b1b4",
"kX c #a5b5ba",
"lX c #a9b5b6",
"zX c #a9b3b5",
"xX c #a9b6ba",
"cX c #aab3b8",
"vX c #abbabc",
"bX c #b2a7a0",
"nX c #b6aca5",
"mX c #b1bbb9",
"MX c #bcb8b3",
"NX c #aebdc1",
"BX c #abbcc3",
"VX c #b1bdc2",
"CX c #b8c5be",
"ZX c #aec2c9",
"AX c #b4c5c5",
"SX c #b5c8cf",
"DX c #b9cacf",
"FX c #bbced3",
"GX c #b2cbd4",
"HX c #bed0d4",
"JX c #c1b1a9",
"KX c #c9c6be",
"LX c #c3d2db",
/* pixels */
". v. XR.J.b.>X4X3XsXdX6X/.K.8.a t J.).N.' Q n L 4 w r r h x r @ ",
"  yX+X,.q.j.&X+X/.*XpX7X&XP.9.j = 2X=Xh.] m y Q +.2.2.%.Z.C.B.l ",
"* aX#XT { D.~.T. X_.3X5X9X1Xb.e = 5X&Xp.] a x I Y %.1.x g T =.k ",
"& m.<XN.K.(.Y._._.&XcX2X7X+X8.m - pX#XB.] r y ! R ] 6 i / /  .l ",
"% rX'.<.N.h.A.).j.3XzXqXgXJ.P h 4 6XG.B.! E E Q ) { O u *.v g P ",
"< JX#X3.p.+X[.).e.3XxXhX=XA.c 5 e 3X~.C.o.q m x ) %.f ^ ^ T z V ",
"M.KX[.2.%.B.T.P.~.iXlXzX3XK.P p e zX#Xq.! / s m %.,.+.Z.i.@.[ k ",
"x.mX).9.1.).@X^.8XcX9X9X#X$.! h 5 9X2Xs.a P h B x o.s [ 3.p.$ @ ",
"> ,X+XD.h.@X;X1XxXdX3XwX-X} P s 4 &X Xu.z h 7 ! ' @.x T 3.>.X # ",
", 1XS.i.K.;X#X5XwXgX9XpXpXD.;.9 e %Xj.N.+.f k p P 1.) O.*.0.q @ ",
"J mX!.p.p./.!.G.I.lXvXsXW.1.Y a o wX+X9.y X s d I O.[ 4.%.3.A p ",
"K fX[.K.h.E.E.H.l.6XxXAX;XR.;.7 + =X6.Y y Y y S @.;.@.*.3.6.D.p ",
": iX+XZ.Z.4XuXT.t.#XVXNXhX].+.- 5 AX!.>.) z 7 [ ` O.O.&.O.$.6.q ",
"c.vX+X!.).(.V.~.S.XXkXdX,Xf.C 1 ; DXyX0.x a x ! R ` C C ^ 3.l.9 ",
"rXfXA.0.S.E.f.3X8XlXvXjX!.0.] p ; gX~.a.s M V ..Z Z W &.4.$.7.s ",
"bX).j.O.k.1X[.lXgXdXjX0X[.1.k 8 y LX!.1.k y 0 o.o.O.O.$.4.&.*.( ",
"MXz.<.&.~.3X3X3XI.ZXFXjXd.1.( 7 y kX!.s.! ] ) ! Y ) b M f.6.j.] ",
"nXT.>.7.).#X4XU.U.NXSXkXeXI.x - 4 9XQ.f.] f Z Q ! E C 3.d.=.7.( ",
"|.).N.J.$X+X+Xf.5XBXqX,Xy.x N ; _ NX/.2.R f 9 p A ) / 7.&.%.7.Y ",
"n.T.B.B.C.XX,X_.8XvXwX*Xj.5.o.# *.BX+Xp.o.b y ~ W ~ M $.4.&.*.Z ",
"{.!.5.p.B.).5X~.`.VXeX%X`.F.O.; >.NXr.A B 0 p Y Z M q F =.3.4.A ",
"tXC.u 3.+X+X1Xf.vXeXgXsXpX9.x ; *.ZX#Xp.%.x Y Z M | #.#.4.<.e.T ",
"pXC.a.).1XOX6XqXLXFXHXeX%X .i 1 =.GXd.( T 3 2 2 b ^ D D ^ #.d.W ",
"}.:XR.Z.A q s R ] ;. .H v.L.U o -.CX~.3.O.F Z C X.u.u.u.p.y.d.T "
};
