/* XPM */
static char *exit[] = {
/* width height num_colors chars_per_pixel */
"    32    32        4            1",
/* colors */
". c #b2c0dc",
"# c #000000",
"a c #ffffff",
"b c #8b0000",
/* pixels */
"................................",
"................................",
"..............#################.",
"..............#################.",
"..............##aaaaaaaaaaa####.",
"..............##aaaaaaaaaaa####.",
"..............##aaaaaaaaaaa####.",
"..............##aaaaaaaaaaa####.",
"..........######aaaaaaaaaaa####.",
"..........######aaaaaaaaaaa####.",
"..........##bb##aaaaaaaaaaa####.",
"..........##bb##aaaaaaaaaaa####.",
"############bbbb#aaaa####aa####.",
"############bbbb#aaaa####aa####.",
"##bbbbbbbbbbbbbbb##aa####aa####.",
"##bbbbbbbbbbbbbbb##aa####aa####.",
"##bbbbbbbbbbbbbbb##aaaaaaaa####.",
"############bbbb#aaaaaaaaaa####.",
"############bbbb#aaaaaaaaaa####.",
"..........##bb##aaaaaaaaaaa####.",
"..........##bb##aaaaaaaaaaa####.",
"..........######aaaaaaaaaaa####.",
"..........######aaaaaaaaaaa####.",
"..............##aaaaaaa########.",
"..............##aaaaaaa########.",
"..............##aaa############.",
"..............##aaa############.",
"..............#################.",
"..............#################.",
"................................",
"................................",
"................................"
};
