/* XPM */
static char *fax[] = {
/* width height num_colors chars_per_pixel */
"    32    32       31            1",
/* colors */
". c #ffffff",
"# c #fffff7",
"a c #fff7f7",
"b c #ffefef",
"c c #f7f1f7",
"d c #f6efef",
"e c #ffe7ef",
"f c #f5e6ef",
"g c #f1dfe5",
"h c #e5d7e1",
"i c #e1ced3",
"j c #d2c3ca",
"k c #c7b1bf",
"l c #baa2ae",
"m c #ac9cad",
"n c #aa95a4",
"o c #a58c9c",
"p c #9b8c9b",
"q c #978394",
"r c #977e88",
"s c #897787",
"t c #836b7f",
"u c #79606e",
"v c #665363",
"w c #5a4658",
"x c #493e54",
"y c #4c3949",
"z c #423444",
"A c #2f2a4a",
"B c #2f283b",
"C c #1c1c00",
/* pixels */
"................................",
"...........dtBA.................",
"...........AAAAhm...............",
"...........BzxzAA...............",
"...........jAzABA...............",
"............AAABAd..............",
"............BAABAv..............",
"............xBzxwtlkkk..........",
".........hnttvxxvniiigdi........",
"....jlkkjjjjrvwtol.ghjhii.......",
"...lvhjiiigafknqqrlbdhhha.......",
"...wkt.dffghgad.....a.aand......",
"...vnhohgfhf.......a.aafjad.....",
"...vvhli.l.......aeeefgda..g....",
"..fvvtgv.q...g..afb....e.fc.....",
"..hulwgf..r........fv..hgafgc...",
"..agdvyfgd.gg..laqrl.....eif.c..",
".ivdckzikr..ff..i....e#..hgcff..",
"..y.aczwcw...f.d....c........jf.",
"..ctcaagacr.a.ba.i.c.f....lnlld.",
"...w....u.v..bh.a.....goonnnlpl.",
"....l...w.oo......kqpponnnnlpql.",
"....w....y.vooopoqononltzzzBBrm.",
"....u...By.noooooonuzyzyBzyyBom.",
"....rk.hsxtpnnnvBBzyBzyyyxywunn.",
"....luvymwtqopBzzzzyyyxwunpqnno.",
".....j.lwwtqptyyzyuwtnnroqtmph..",
".....zhgyxtqnwwvppsuqnsqnpptq...",
".....sn..ytprpqsqqvttqqqqqif....",
"......v...tqqqpqsssssld.....g...",
"......t...uqsstttrd....c...ci...",
"...........tpkj.........cc......"
};
