/* XPM */
static char *magick[] = {
/* columns rows colors chars-per-pixel */
"32 32 256 2",
"   c #00070c",
".  c #010a0a",
"X  c #040a06",
"o  c #09110a",
"O  c #0f1514",
"+  c #0f1916",
"@  c #111611",
"#  c #111b14",
"$  c #131d1b",
"%  c #1b2017",
"&  c #1a2119",
"*  c #262b1e",
"=  c #292716",
"-  c #2a2d1d",
";  c #3b371f",
":  c #212c28",
">  c #292d20",
",  c #20322e",
"<  c #2b352d",
"1  c #333522",
"2  c #323629",
"3  c #35382b",
"4  c #3b3c2d",
"5  c #363e33",
"6  c #3b3d32",
"7  c #3f412f",
"8  c #3e4235",
"9  c #3e463b",
"0  c #444026",
"q  c #44422c",
"w  c #49442a",
"e  c #4d492f",
"r  c #494124",
"t  c #464733",
"y  c #43473b",
"u  c #474b39",
"i  c #4b4a33",
"p  c #4c4d39",
"a  c #464934",
"s  c #50462e",
"d  c #52482d",
"f  c #534f37",
"g  c #5a4e30",
"h  c #52523c",
"j  c #59563d",
"k  c #5d5b3e",
"l  c #535235",
"z  c #625836",
"x  c #4d5242",
"c  c #4d504a",
"v  c #535444",
"b  c #575748",
"n  c #515849",
"m  c #5c5b43",
"M  c #5a5c4c",
"N  c #565a56",
"B  c #555b53",
"V  c #595d56",
"C  c #5c5e54",
"Z  c #5b5e59",
"A  c #5c604d",
"S  c #5e6254",
"D  c #5d615a",
"F  c #5e6466",
"G  c #615f49",
"H  c #635e41",
"J  c #605f59",
"K  c #646347",
"L  c #626149",
"P  c #66634a",
"I  c #67654a",
"U  c #66664e",
"Y  c #64634c",
"T  c #67684f",
"R  c #6b6445",
"E  c #69664e",
"W  c #6b664b",
"Q  c #6a684e",
"!  c #6d694e",
"~  c #6c6a4b",
"^  c #666651",
"/  c #626453",
"(  c #61635d",
")  c #62655d",
"_  c #65665e",
"`  c #666955",
"'  c #696750",
"]  c #6b6653",
"[  c #6a6951",
"{  c #6d6951",
"}  c #6e6a55",
"|  c #6d6c52",
" . c #6d6c55",
".. c #6a6b5a",
"X. c #6c715d",
"o. c #726946",
"O. c #716d4e",
"+. c #756c4b",
"@. c #796f4d",
"#. c #716d52",
"$. c #716d54",
"%. c #726b52",
"&. c #706f5f",
"*. c #7d714e",
"=. c #747155",
"-. c #7e7552",
";. c #7c7453",
":. c #7f7856",
">. c #7e7959",
",. c #73725c",
"<. c #626762",
"1. c #646965",
"2. c #6c6c64",
"3. c #6b6d6a",
"4. c #646b6c",
"5. c #6e7067",
"6. c #6f716e",
"7. c #6e7474",
"8. c #737265",
"9. c #73756c",
"0. c #78766b",
"q. c #7c7c64",
"w. c #7b7c6d",
"e. c #757b6e",
"r. c #747572",
"t. c #767975",
"y. c #797a72",
"u. c #7a7a75",
"i. c #7b7c75",
"p. c #7d7f79",
"a. c #7a7d7b",
"s. c #777c80",
"d. c #797e80",
"f. c #7e816d",
"g. c #7e817b",
"h. c #7d8384",
"j. c #7e868a",
"k. c #7f8892",
"l. c #807654",
"z. c #817653",
"x. c #817856",
"c. c #857d5a",
"v. c #857e5d",
"b. c #837b59",
"n. c #867f61",
"m. c #807f79",
"M. c #86805c",
"N. c #88815f",
"B. c #868161",
"V. c #81836e",
"C. c #898364",
"Z. c #8d876a",
"A. c #838672",
"S. c #84847e",
"D. c #81827c",
"F. c #88877e",
"G. c #8c8b73",
"H. c #8b8773",
"J. c #908c75",
"K. c #919077",
"L. c #94957d",
"P. c #98947d",
"I. c #9a997f",
"U. c #818382",
"Y. c #828482",
"T. c #828685",
"R. c #848584",
"E. c #82868a",
"W. c #868885",
"Q. c #858a8a",
"!. c #868c8d",
"~. c #848a8d",
"^. c #8a8b87",
"/. c #888d8b",
"(. c #868d91",
"). c #848c94",
"_. c #848f99",
"`. c #898e92",
"'. c #888f96",
"]. c #8a938a",
"[. c #86939d",
"{. c #899095",
"}. c #8c9396",
"|. c #8f9596",
" X c #899199",
".X c #8b939b",
"XX c #8b9b9e",
"oX c #969681",
"OX c #979b84",
"+X c #94998d",
"@X c #9a9782",
"#X c #9c9b86",
"$X c #9c9d8a",
"%X c #929a9e",
"&X c #8795a0",
"*X c #8b96a1",
"=X c #8e9ca3",
"-X c #929ba3",
";X c #9ea18b",
":X c #99a294",
">X c #97a0a6",
",X c #a1a38d",
"<X c #a1a58e",
"1X c #a2a28c",
"2X c #a2a591",
"3X c #a4a692",
"4X c #a5a995",
"5X c #a5a993",
"6X c #a2ae9f",
"7X c #a9ab97",
"8X c #a9ad97",
"9X c #a8ab99",
"0X c #a9ac99",
"qX c #aeae9d",
"wX c #aeb29e",
"eX c #abb09f",
"rX c #a2a9a3",
"tX c #a3aaad",
"yX c #a5aeb1",
"uX c #a5adb3",
"iX c #aeb1a0",
"pX c #afb6a5",
"aX c #acb5ab",
"sX c #adb8a8",
"dX c #a6b1ab",
"fX c #a7b2b5",
"gX c #a6b0b2",
"hX c #a7b4ba",
"jX c #a9b2b5",
"kX c #acb7ba",
"lX c #aab5bb",
"zX c #adbabd",
"xX c #aebbbb",
"cX c #b1b2a1",
"vX c #b0b4a8",
"bX c #b2b9a7",
"nX c #b4bcab",
"mX c #b2b7b9",
"MX c #b3beb4",
"NX c #b2bcbd",
"BX c #aebcc2",
"VX c #b1bec1",
"CX c #b2bfc4",
"ZX c #b7c0af",
"AX c #b9c1ad",
"SX c #b5c0b3",
"DX c #b7c3be",
"FX c #bcc1b0",
"GX c #b2c1c2",
"HX c #b3c2c5",
"JX c #b4c5c8",
"KX c #bacbca",
"LX c #becbc5",
"PX c #bed0cb",
"IX c #cbddd8",
"UX c #cfe0db",
/* pixels */
"mXyXyXyXfXfXlXkXzXzXxXGXHXHXGXVXxXrXxXxXGXVXCXBXBXkXhXfXfXgXyXyX",
"NXfXkXlXkXkXzXzXxXBXVXCXHXGXHXJXJXaXVXJXGXGXVXVXzXkXfXgXyXyXtXtX",
"mXlXlXxXBXBXBXxXxXJXKXKXIXUXPXKXKXaXxXJXJXGXGXNXxXkXfXfXjXyXtXtX",
"kXhXlXkXBXVXSXnXZXZXZXAXAXFXnXnXnXbXbXbXpXsXMXnXsXjXMXjXfXlXuXyX",
"NXzXlXlXkXaXwXiXiXcXiXiXiXiXwXqXiXcXwXiXiXqX8X0X0X8X8X8XwXvXjXuX",
"6XDXgXBXdX3X0X0X0X0X0X0X0X9X9X9X9X4X7X9X7X4X4X4X4X3X4X4X4X3X3XtX",
"X.w.+XLX].+X5X3X3X3X5X3X3X3X3X<X3X3X3X3X3X<X3X1X1X3X2X1X;X;X;XrX",
"2.a.$X$X..0.1X3X3X<X1X<X1X1X1X<X3X<X,X1X$X;X;X#X$X#X#X+XOXOX1Xw.",
"0.g.:X+XC v X.w.V.A.A.A.A.A.f.V.f.f.A.K.OX#XP.P.oXOX#X@X@XoX$X} ",
":Xe.2.^.3.c N Z M M n n C S M M M M / S ` ` / } X.w.V.q.q.G.B...",
"..^ F.S.D.<.1.b h h q q g d g d s e e i e w w i i 1 u M / ^ f a.",
"` ` ^.D.g.a.7.! z.l.-.*.@.@.+.+.+.+.+.+.o.R R z g r 0 ; q _ 6.|.",
") e.S.i.g.h.s.=.b.x.b.b.x.x.x.-.x.l.-.-.-.l.-.-.-.z.;.+.+.%X>X%X",
"a.T.a.U.E.).).H.Z.C.N.v.v.v.v.v.v.v.v.n.v.c.c.b.b.:.z.x.-.*X%X%X",
"h.j.E.).)._.).+XI.P.oXK.G.Z.Z.B.Z.B.Z.B.n.v.B.B.N.N.M.c.v.XX-X-X",
"h.j.).).).[.).,.{  .{ { { %.%.$. .$.%.%.{ %.;.>.>.b.q.G.J.-X-X-X",
"a.).). X.X&X XE { [ [ Q [ { ] ! %.$.} } $.%.! O.O.} { %.=.=X-X-X",
"u.W. X*X*X&X X[ [ $.! [ |  .! R K W ! =.;.%.%.+.+.%.%.{ } =X-X-X",
"u.g.(..X*X&X XE L  .[ { { { { { { f 1 I a k m i O.q k ! | *X-X-X",
"u.p.E.(..X[.).I K { [ Q [ E { { =.9 , M $ 9 3 . u X 8 =.] {..X|.",
"p.u.h.E.).).).P m { Q Q ! [ [ Q =.m u =.3 Y i 4 T * ^ ~ 8.!.!.`.",
"W.S.T.`.}..X!.I m { [ Q [ { [ ! T @ # a $ i % 4 i o ~ I 0.Q.Q.`.",
"^.Y.S.Q.`. XT.E G Q E T Q [ [ ] $.6 8 v 5 h < x y # | I 9.W.!.|.",
"^.T.U.W.!.`.h.Y L E [ E [ [ E { | * h h * I = l t 7 =.{ 9.h.T.!.",
"!.Q.U.U.T.Q.p.K L ' E I T [ E ! ^   8 9 $ v @ 5 & : !  .i.g.S./.",
"`.Q.Y.R.Y.j.t.L Y ' [ [ E ' [ | E > L t t Y 2 I A / I U u.a.m.T.",
"`.!.Q.Q.E.T.u.L I E P [ E T E | x   5 + < 3 . T %.| ~  .u.y.p.T.",
"{.`.!.Q.Q.Q.a.L K U I ! ~ Q I E m 3 h 6 t v * j k H R &.i.y.m.Y.",
"}..X`.`.!.~.j.2...` ` `  .^ T U Q ! E T [ [ Q I I Q Q 8.t.y.g.T.",
" X}.{.{.!.Q.T.s.7.4.F V N N N B B B V V Z V Z S ( _ 5.r.0.u.p.Y.",
" X X{.`.(.(.E.h.r.3.<.D Z D V V Z N D Z Z ( ( D D 1.5.9.r.y.p.Y.",
"{.'.{.(.(.!.j.s.r.3.1._ ( ( ( ) ) ) ) ) ) ) ) _ _ 2.5.0.r.u.p.U."
};
