/* XPM */
static char * help_xpm[] = {
"30 27 54 1",
" 	c None",
".	c #000000",
"+	c #1E1E1E",
"@	c #696969",
"#	c #A5A5A5",
"$	c #D1D1D1",
"%	c #EEEEEE",
"&	c #FDFDFD",
"*	c #464646",
"=	c #B6B6B6",
"-	c #FFFFFF",
";	c #0E0E0E",
">	c #A9A9A9",
",	c #202020",
"'	c #E4E4E4",
")	c #9C9C9C",
"!	c #1D1D1D",
"~	c #505050",
"{	c #1F1F1F",
"]	c #BFBFBF",
"^	c #333333",
"/	c #040404",
"(	c #585858",
"_	c #727272",
":	c #CBCBCB",
"<	c #B2B2B2",
"[	c #EBEBEB",
"}	c #0D0D0D",
"|	c #FEFEFE",
"1	c #F7F7F7",
"2	c #878787",
"3	c #CDCDCD",
"4	c #BDBDBD",
"5	c #686868",
"6	c #D7D7D7",
"7	c #242424",
"8	c #EFEFEF",
"9	c #606060",
"0	c #767676",
"a	c #2D2D2D",
"b	c #FCFCFC",
"c	c #D9D9D9",
"d	c #5B5B5B",
"e	c #E7E7E7",
"f	c #1C1C1C",
"g	c #C6C6C6",
"h	c #8D8D8D",
"i	c #C8C8C8",
"j	c #555555",
"k	c #E2E2E2",
"l	c #AAAAAA",
"m	c #151515",
"n	c #383838",
"o	c #717171",
"                              ",
"         ..........           ",
"       .+@#$%&&%$#@+..        ",
"     .*=------------=*..      ",
"    ;>---------------->;..    ",
"   ,'-------)!!~-------'{..   ",
"  .]-------^.!!/!-------]...  ",
"  (--------._--:.~-------(... ",
" .<--------:----!!-------<... ",
" .[-------------}!-------[... ",
" .------------)}.)--------....",
" .[----------/./_--------[....",
" .<----------.~----------<....",
" .(--------|123----------(....",
"  .]-------1456---------].... ",
"   7-------89.0--------'{.... ",
"   .a------bcde------->}....  ",
"    .f--------------=*......  ",
"     .fg-----------=.......   ",
"      ..h---------i........   ",
"       ..fh--------j......    ",
"        ...fhk------f.....    ",
"          ....jl----km....    ",
"           ......nol-km...    ",
"             ........fjn...   ",
"               ............   ",
"                 .........    "};
