/* XPM */
static char *magick[] = {
/* columns rows colors chars-per-pixel */
"32 32 255 2",
"   c #030007",
".  c #00000a",
"X  c #0d060e",
"o  c #0a121e",
"O  c #1a0f11",
"+  c #14151c",
"@  c #161422",
"#  c #2c282d",
"$  c #2a2226",
"%  c #3b384b",
"&  c #4a2f23",
"*  c #4f3125",
"=  c #55372b",
"-  c #453e47",
";  c #5f433a",
":  c #55433c",
">  c #654b3e",
",  c #6e4a36",
"<  c #6a4b39",
"1  c #6f503e",
"2  c #744d3d",
"3  c #4f4141",
"4  c #464b55",
"5  c #524d47",
"6  c #574b52",
"7  c #5c525a",
"8  c #5c5e67",
"9  c #634c4c",
"0  c #6c5548",
"q  c #6e594d",
"w  c #6c5346",
"e  c #625151",
"r  c #6e5258",
"t  c #6e5b53",
"y  c #6a5b5b",
"u  c #72554d",
"i  c #735847",
"p  c #735a4d",
"a  c #785544",
"s  c #7c5c4b",
"d  c #725544",
"f  c #775d52",
"g  c #745d54",
"h  c #715f5e",
"j  c #7a5f53",
"k  c #785f5c",
"l  c #615d60",
"z  c #705a67",
"x  c #756053",
"c  c #75625c",
"v  c #7c6255",
"b  c #7b665d",
"n  c #7d655d",
"m  c #7c635c",
"M  c #7d6a5a",
"N  c #666469",
"B  c #696667",
"V  c #766669",
"C  c #7e6c69",
"Z  c #776966",
"A  c #776b70",
"S  c #7c6d75",
"D  c #816353",
"F  c #81655c",
"G  c #846b5d",
"H  c #886451",
"J  c #8d6d5b",
"K  c #85705d",
"L  c #816762",
"P  c #856c64",
"I  c #856e69",
"U  c #836d6e",
"Y  c #8d6f62",
"T  c #8c6f69",
"R  c #86736c",
"E  c #86786f",
"W  c #887166",
"Q  c #8c746b",
"!  c #8f796d",
"~  c #867272",
"^  c #827374",
"/  c #83747a",
"(  c #8c7574",
")  c #8b777b",
"_  c #8e7b75",
"`  c #8e797c",
"'  c #917565",
"]  c #90776a",
"[  c #937b6d",
"{  c #9d7d6b",
"}  c #917a76",
"|  c #937e75",
" . c #947d75",
".. c #937b72",
"X. c #927c7c",
"o. c #997f74",
"O. c #8c7c83",
"+. c #917d86",
"@. c #947d80",
"#. c #927e89",
"$. c #947e8a",
"%. c #947f8c",
"&. c #958274",
"*. c #968279",
"=. c #95837e",
"-. c #9c8275",
";. c #9a8179",
":. c #99827c",
">. c #99857a",
",. c #9a867c",
"<. c #9d867d",
"1. c #9d8379",
"2. c #9e897f",
"3. c #a28679",
"4. c #a4877e",
"5. c #a48977",
"6. c #a38979",
"7. c #a5897a",
"8. c #a58b7e",
"9. c #a58c7d",
"0. c #a88a77",
"q. c #aa8e7e",
"w. c #a48574",
"e. c #a4927f",
"r. c #ae917f",
"t. c #8c8086",
"y. c #92828d",
"u. c #96828d",
"i. c #96858b",
"p. c #95838d",
"a. c #97898b",
"s. c #9a8784",
"d. c #99858e",
"f. c #99858b",
"g. c #9d8981",
"h. c #9d8a84",
"j. c #98888d",
"k. c #9c8c8b",
"l. c #958692",
"z. c #958696",
"x. c #948392",
"c. c #968799",
"v. c #968992",
"b. c #968999",
"n. c #97899c",
"m. c #998691",
"M. c #9b8591",
"N. c #998798",
"B. c #9a8893",
"V. c #9a8995",
"C. c #998d96",
"Z. c #9d8992",
"A. c #9d8a96",
"S. c #9e8c96",
"D. c #9a8a9a",
"F. c #9b8e9d",
"G. c #9d8b9a",
"H. c #9c8a9d",
"J. c #9e8d9a",
"K. c #9d8e9d",
"L. c #9a8b9c",
"P. c #98919c",
"I. c #9e919e",
"U. c #9e979e",
"Y. c #9f989f",
"T. c #9e8da1",
"R. c #9d8aa1",
"E. c #9e94a1",
"W. c #a18b81",
"Q. c #a28b86",
"!. c #a28d82",
"~. c #a28d85",
"^. c #a58d82",
"/. c #a48e85",
"(. c #a58b83",
"). c #a18e89",
"_. c #a58e89",
"`. c #a48e8d",
"'. c #a98e81",
"]. c #a98f85",
"[. c #a98f88",
"{. c #a18c96",
"}. c #a18d9a",
"|. c #a18e9d",
" X c #a18a9a",
".X c #a59186",
"XX c #a59083",
"oX c #a69289",
"OX c #a5938a",
"+X c #a99082",
"@X c #aa9285",
"#X c #ac9283",
"$X c #ac9285",
"%X c #ae9586",
"&X c #a99289",
"*X c #aa9589",
"=X c #a9958f",
"-X c #ac9389",
";X c #ad968a",
":X c #ad978c",
">X c #ac938c",
",X c #af998a",
"<X c #ae998d",
"1X c #ab988c",
"2X c #a1919e",
"3X c #a0979b",
"4X c #a2949e",
"5X c #a0999f",
"6X c #a9989e",
"7X c #ab9994",
"8X c #b19585",
"9X c #b1968a",
"0X c #b1978d",
"qX c #b49788",
"wX c #b1998a",
"eX c #b2998e",
"rX c #b69d8f",
"tX c #b39a8d",
"yX c #b39a92",
"uX c #b39d92",
"iX c #b29e95",
"pX c #b49b92",
"aX c #b59e92",
"sX c #b59e95",
"dX c #a296a2",
"fX c #a594a2",
"gX c #a697a4",
"hX c #a293a3",
"jX c #a598a3",
"kX c #a499a4",
"lX c #a69ba9",
"zX c #a89aa5",
"xX c #aa9ca5",
"cX c #ab9caa",
"vX c #b6a18e",
"bX c #b5a196",
"nX c #b4a093",
"mX c #b6a199",
"MX c #b7a29d",
"NX c #b8a297",
"BX c #b9a299",
"VX c #baa59d",
"CX c #bca69e",
"ZX c #bda99f",
"AX c #bca9a4",
"SX c #bcabab",
"DX c #baa6a3",
"FX c #c0aca9",
"GX c #c4b7ba",
"HX c #c2b9bd",
"JX c #c2b3b1",
"KX c #cec4cb",
"LX c #d7d2d9",
"PX c #dbdce2",
"IX c #ececef",
/* pixels */
"+.#.#.$.u.u.m.m.m.m.B.Z.Z.J.J.J.J.G.J.|.K.|.K.G.G.D.D.D.N.N.l.x.",
"#.#.%.u.u.m.m.m.m.D.Z.}.}.}.}.|.|.T.T.hX|.K.|.J.H.H.J.D.D.D.l.x.",
"#.+.$.$.d.m.Z.Z.D.G. XG.G.|.|.G.l.M.%.d.|.K.H.T.K.K.H.D.B.c.c.x.",
"#.#.$.u.m.Z.G.Z.}.J.K.|.|.H.( '.(.(.(.W.Q.<.f.d.x.K.H.T.R.n.c.l.",
"#.u.u.u.Z.S.}.}.|.|.}.2XfXy.j 0X'.$X&X).Q.2.W.1.,.*.@.d.y.l.n.l.",
"u.u.f.d.{.|.2XG.J.|.2X2XhXO.v 0X@X$X@X(.W._.).&X(.<.;.;...} x.l.",
"u.d.Z.Z.}.2X) k U X.X.X.@.T s 0X$X%X&X`.>XA % s.6 k.o.<.;.} _ l.",
"d.m.Z.Z.2XK.v Q I <._.=XW.o.-.;X$X;X=X(.eXt # : + ^ @ A 2.| ` c.",
"m.B.B.{.fXi.s +XoXB 4 8 ( 1.;.;X&X;X*XoX*XW./.+Xx ! O V g.| } b.",
"d.B.{.}.gX` H (.h.$   X 9 4.3.@X@X@X@XoXXX3 - R 7 h.E ).g.1.` b.",
"Z.{.B.f.`.| { -.;.8.qXtXtXeXeX0XeX-X-X(.^...P G Z 9.g } e C o.b.",
"B.d.} w.3.q.].$X8XtXeXeXyXyXyXuXsXpXsXbXBXCXZXCXCXBXCXbXW h ` b.",
"i.f { 3.7.^.].@X$X@X;XtXeXpXuXuXaXaXaXvXmXbXnXsXaXiXiXsXaXR / D.",
"@.1 w.6.7.^.].'.$X;X:XeXyXyXuXsXaXsXaXbXbXmXBXbXbXiXsXiXaXQ S b.",
"~ , 3.3.7.'.+X$X;X%XtXeXyXyXaXaXvXbXbXBXVXAXCXMXbXsXiXiXsX[ / D.",
"U , 7.6.8.'.+X$X%X,X9XeXyXrXaXsXbXbXMXVXSXSXAXDXmXnXuXsXaX! / H.",
"I a 0.7.q.#X$X8X8XqXeXaXpXrXsXsXmXNXCXJXKXIXLXHXAXbXsXsXbXP / F.",
"..v J 8.8.^.'.;X,XtXeXsXbXbXBXbXsXbXmXFXHXIXPXKXGXZXVXVXW.c O.F.",
"G > < d v v p n = * * = > 2 2 a D W ! ( ! R n W ,.<.s.*.C Z l.F.",
"G I Q u g p D 7.Q [ *.-.q.q.8X8X9X1X*X*XvX0.0 p 0 M 0 q k R k.K.",
"P m ).cXZ.} #X=Xh.y _ &X$XrXrXaXaXuX1X1X1X1XeX,Xg.e.v K ,.} Z.F.",
"] ..s.xXG.F $XSXl . o 6 8.9XeXtXyX=X.X;XaXoX.XoX/./..Xg.>.&.a.F.",
"L ] R jXk.D q.7XC 5 N ^ #X8XeX1XeX*X@XoX*X.X(.(.(.h.g.s.>.&.k.F.",
"Z ] Q zXB.D -.L G W Q [ { tX;XtXeX:X&XoXoX.X(..X/.2.g.2.>.&.d.K.",
"P ;.a.zXU.F [ _ (..X.X^.[ ' eX;X0X*XoXoX.XoX_.(.W.h.g.,.*.} k.I.",
"..P X.cXlXc p _ 8.1.^.9X#X' tX,X1X:XoXoXoX.X/.W.2.s.g.&.*.&.a.I.",
"F [ ^ cXX.) a.z r ( k.:.x F tX%X;X1X.XoXoX_.W..Xh.2.,.>.*.} B.I.",
"W ~ s.s.n ~ dXzXlXlXzXdX/ F rX;X;X1XoX/./.W.h.h.g.,.>.,.*...d.I.",
"n I ..b / 2XK.K.2X2X4XxXt.i r.r.;XtXeX=X:X*XOXoX.X/.g.2.,.| l.K.",
"I R / / C.C.B.J.K.I.I.dXC.y ; ; w q x n m f f p p g f g t / E.K.",
"I ~ F.D.z.l.B.S.J.I.I.I.zXcXI.I.Y.E.I.E.dXY.3X3X5X5XdX5XI.E.E.I.",
"b ~ l.l.a.z.B.C.J.J.J.2X2XdXdXkXkXkXkXzXzXzXkXkXdXdXdXdXE.I.I.K."
};
