/* XPM */
static char *phone[] = {
/* width height num_colors chars_per_pixel */
"    64    64      241            2",
/* colors */
".. c #040205",
".# c #7c826c",
".a c #645638",
".b c #acc2b4",
".c c #8ca694",
".d c #6c6e54",
".e c #849284",
".f c #1c2210",
".g c #545a3c",
".h c #7c6e4d",
".i c #acaa9a",
".j c #4c462c",
".k c #7c8285",
".l c #646242",
".m c #342e1c",
".n c #04120a",
".o c #94927c",
".p c #64706c",
".q c #acb6a1",
".r c #64625c",
".s c #d4e2d4",
".t c #545a54",
".u c #1c1a0c",
".v c #94929c",
".w c #8c8261",
".x c #c4d3cc",
".y c #7c766c",
".z c #acb6b9",
".A c #7c8a84",
".B c #746646",
".C c #0c1a0f",
".D c #243228",
".E c #44524c",
".F c #6c7e6c",
".G c #3c4231",
".H c #c4c6bc",
".I c #646a51",
".J c #5c4e2c",
".K c #949a84",
".L c #4c5244",
".M c #9ca28c",
".N c #746f4c",
".O c #7c7a61",
".P c #4c4c48",
".Q c #54685c",
".R c #84929b",
".S c #242514",
".T c #8c8d8b",
".U c #9ca6ac",
".V c #040c09",
".W c #4c4e33",
".X c #64654f",
".Y c #14160c",
".Z c #8c8c72",
".0 c #bcbeb4",
".1 c #443b22",
".2 c #bccdc9",
".3 c #5c624b",
".4 c #74756e",
".5 c #acbebc",
".6 c #848e7c",
".7 c #8c9ba1",
".8 c #7c827c",
".9 c #bcc5ba",
"#. c #acb2b7",
"## c #0c151d",
"#a c #b4beac",
"#b c #646a5e",
"#c c #242a1a",
"#d c #645e50",
"#e c #545b4b",
"#f c #b4b7a4",
"#g c #0c1a1e",
"#h c #444a32",
"#i c #a4aa95",
"#j c #54492e",
"#k c #848586",
"#l c #949585",
"#m c #5c553a",
"#n c #949b9c",
"#o c #a4b0b5",
"#p c #7c7e73",
"#q c #7c8a94",
"#r c #9c9c84",
"#s c #5c5644",
"#t c #747361",
"#u c #8c7e5f",
"#v c #140e04",
"#w c #b4c3c4",
"#x c #646e60",
"#y c #7c7654",
"#z c #acb29f",
"#A c #44361c",
"#B c #0c1206",
"#C c #6c7678",
"#D c #44442a",
"#E c #a4a591",
"#F c #8c9399",
"#G c #040e16",
"#H c #6c664e",
"#I c #948d75",
"#J c #645e42",
"#K c #34362c",
"#L c #ccdbd1",
"#M c #b4babc",
"#N c #2c3e24",
"#O c #343e34",
"#P c #747c7f",
"#Q c #545549",
"#R c #847d5b",
"#S c #5c6668",
"#T c #3c4a3c",
"#U c #443d2f",
"#V c #5c5c47",
"#W c #9c9e94",
"#X c #6c6443",
"#Y c #6c706e",
"#Z c #5c5d57",
"#0 c #8c867c",
"#1 c #141a08",
"#2 c #c4cec4",
"#3 c #8c8e94",
"#4 c #0c0d04",
"#5 c #dcf2e4",
"#6 c #ecfef4",
"#7 c #1c1e2c",
"#8 c #24262c",
"#9 c #7c7a84",
"a. c #7c7264",
"a# c #848262",
"aa c #b4c2b2",
"ab c #3c3018",
"ac c #545233",
"ad c #6c665c",
"ae c #a4aea0",
"af c #ccc9c7",
"ag c #a4aaab",
"ah c #2c2c18",
"ai c #a4b6bc",
"aj c #14161f",
"ak c #7c7e7d",
"al c #8c9281",
"am c #6c6a4c",
"an c #544e32",
"ao c #b4bebc",
"ap c #6c6a61",
"aq c #5c625b",
"ar c #3c361c",
"as c #444a3f",
"at c #9c9478",
"au c #241e0c",
"av c #ccd2c4",
"aw c #847a74",
"ax c #848b8c",
"ay c #2c3529",
"az c #3c3e28",
"aA c #747a73",
"aB c #5c675b",
"aC c #44463c",
"aD c #2c2610",
"aE c #4c3e24",
"aF c #84837c",
"aG c #141d1c",
"aH c #9c9684",
"aI c #848d95",
"aJ c #6c6f60",
"aK c #d4decc",
"aL c #3c3c38",
"aM c #1c251c",
"aN c #645a44",
"aO c #acaea4",
"aP c #7c8694",
"aQ c #041214",
"aR c #acb8ac",
"aS c #64666c",
"aT c #8c866c",
"aU c #acbac4",
"aV c #746a54",
"aW c #949c8c",
"aX c #746f54",
"aY c #8c8d7c",
"aZ c #74767c",
"a0 c #b4baac",
"a1 c #544a3c",
"a2 c #848694",
"a3 c #949ca4",
"a4 c #9c9e8c",
"a5 c #5c5254",
"a6 c #0c1514",
"a7 c #444634",
"a8 c #a4a49c",
"a9 c #8c96a4",
"b. c #2c3a34",
"b# c #545654",
"ba c #847e64",
"bb c #84856c",
"bc c #b4c4bc",
"bd c #54553c",
"be c #a4aab4",
"bf c #2c2e24",
"bg c #5c5a3b",
"bh c #847655",
"bi c #b4b2a4",
"bj c #6c5e3c",
"bk c #f4fefc",
"bl c #34423c",
"bm c #acbec4",
"bn c #646a6c",
"bo c #9c9ea4",
"bp c #141a14",
"bq c #a4aeac",
"br c #8c928c",
"bs c #6c6a54",
"bt c #b4bec4",
"bu c #6c6a6c",
"bv c #5c6264",
"bw c #040605",
"bx c #645a3c",
"by c #7c7251",
"bz c #acae9c",
"bA c #4c4a32",
"bB c #7c8689",
"bC c #646644",
"bD c #34321f",
"bE c #04160c",
"bF c #94967c",
"bG c #acbaa4",
"bH c #64665e",
"bI c #d4e6dc",
"bJ c #545e54",
"bK c #1c1e10",
"bL c #949694",
"bM c #8c8664",
"bN c #7c7a74",
"bO c #acbabb",
"bP c #746a49",
"bQ c #0c1e14",
"bR c #343e2c",
"bS c #3c4634",
"bT c #c4cac4",
"bU c #4c564c",
/* pixels */
"afboag.Uagag.Ubq#obq#obq#o#.#o.z#..z.z.zbObOao.5btbtbtbtbt.5.5bObObO#WaWbO#MbObO.5#MbtbOaUbOaUbtbOaUbO.zai#o.z#o#o#o#o#obq#o#o#o",
"afagbeagbq#o#o#o#.#o#.#o.z.z.z.zbObObObObO.5bm.5#wbm#wbm#waobtbmaobObq.M#MbmbO.5bO#w.5btbtbtaUbOaUbO.zai#.#o#obq#.#oaObq#oagbqag",
"bT#obe#o#.bq#o#.#o#.ai.z.z.zbObObObO.5.5aobtaobt#w#w#wbm#wbm#wao.5ao#Ma8aUaobtbtbt.5bt.bbtbmbtbOaU.z.z#o#o#o#obqbqagbebeagagag.U",
".H#o#.#o.z#.ai.z.zbO.z.zbO.zbO.zbObObmbt.5btbm#wbm#w#w#w#w#w#wbt#w#w#Maeao#wbm#w.bbt.5btaUao.5#MbO.z.zaR#.#o#.ag#o#oagagag.U.Uag",
"#M#.#o.z#o.z.z.z.zaUaUbOaUbmbO#MbObObtbO#w#w#w#w#w#w#w#w#w#w#w#w#w#w#w#i#M#w#w#w#wbt#wao.5.5#M.5#MbO.z.z#oaR#.#.bqag#oagagagag.U",
"#M#.ai.z.z.z.z.zaU#MaUbOaU#MaU.5aobcaa.x.x.x.x#LbI#6#6#5#L.x.2.2.2#w#w#Eag#w#w#w#w#w#w.5bt.5aobObObObO.z#.#o#.#o#.#.#o#oag#obeag",
".z.z#..zai.zaU.zaUbOaU#Mao.9#a#aaaa0aaaa#aaa#a#a#a#a#a.0#aaa#a#aa0a0#aa0#aaRa0bG.qaRaRaR.9.2.9ao#a.zaR.z.zaR#.#o#.#o#.#obeagbqbe",
"#.aiaiai#.#..z.zaU.z#M#w#aaR#fa0a0a0a0a0a0a0a0bGa0#f#f#f#f#f#f#f#f.q#faR#f#f#f#f#z#f.q.q#z.q#z#z#z#z#zaRaa.9aRbqbq#o#.be#o#oag#o",
"#.#.#o#.ai#.ai#..z.zbO.q.q#f#z#f#z#f#z#f#z#fbi#f#z#f#.#f#z#zbi#z#zbi#f#zbi.qbi#z#f#zbibz#z.i#zbzbzbzbzbzbzbzbz.i#z#z.0#M#.#o#.be",
"bq.z#M#..z.z.z.z.z.zbq#ibzbz#zaObz#zbi#z#z#zbz#z#zbz#zbz#zbzbzbz#z#zaObz#zbz#zbz#zbzbz.i#ibz.i#ibz#i.i#i#E#i#i#i.iaebz#i.i#.#o#o",
"bc#5.5#w.zai.z#o.zaR#E.iaObzbz#i#zbzbzbzbzbzbzbz.ibz.iaebzbzbzbz.ibz#i#i#i.ibz#i.ibz#i#i#i.i#i#i.i#E#i#Ea8#i#i#i.i.i#E#ia8#i#obe",
".6.#avbOaWbO.z.zbOaW#W#i#i#i.i#i.i#i#i#i.i#i.i#i#i#i#i.i#i#i#i#i#i#i#i.i#i#i.i#i#i#i#i#E#i#E#i#E#i#E#E#E#E.i#E#E#E#Ea8#E#E#E#n#o",
".Ibs.##0#e#2bObOae.e.oa8#E#E#E#E#E#E#E#i#E#E#i#E#E#E#E#E#E#E#E#E#Ea8#E#E#E#E#E#E#E#E#E#E#E#E#E#E.M#E#E#E#E.M#E#E.M.M.M#E.M.Mbz#o",
"aA.X#VaOaJ.H#E#5bBbb.T#E.M#E#E#E.M#E#E#E#E#E#E.M#E#E#E#E.M#E.M#E#E.M#E#E.M#E.M#E#E.M#E#E#E#E#E#r#E#r#Ea4a4#Ea4a4a4.Ma4a4a4#W#raU",
"ap#PbHag#t#i#fbNaJaA#p.o.Ma4.Ma4.M.Ma4.Ma4.M.M.Ma4.M#r.M#ra4a4.M.M.M.M.M.M.Ma4#ra4#r#r#r#r#r#r#r#ra4#ra4#ra4#ra4#r#r#r#r#r#r#r#Y",
"aV#YaA#Pa.ag#t#EaJaXaJ.X#ra4#r#ra4a4aW#ra4#ra4#r#r#ra4#r#r#r#ra4#ra4#r#r#r#ra4#ra4#ra4a4#r#r#r#ra4#r#r#r#r#r#r#l#r#l.K#l.KaWata1",
".yada5.s.IbkbT#b#b#V#Z#VaJ.K#l.K#r.K#r.K#rbF.KbF.K.K#l.KbF.Kat.K.K#r#l#r.K.K#r.K#r.K.K#r#l#rat#rat.K#laHaHaH#lat#l#lat#laHbF.oaC",
"aAaBaeaqaJ.e.Tbs#Y#b#e#Q#V#ebH#V.IaJ.d#baJaJ#taJ#taJaJaJbs#baJ.I#VbH.X.I.d#tbbbb.o.K#rbFbF.Z.oal.oalbF.o.o.o.o.o.o.o.oaY.oalat#U",
"aKbN#Z#p#tbH.0.A.4#Z#Qb#.t#Z#S#bbH.XbH.XbH.I.r.X.XaB.I#b.r.XbH.Xad.IbHbH.Iap.X.I#b.Xap#b.X.X#H.XbsaJ.OaYalbFal.Z.Z.Zal.o.Z#Iam.P",
"aWaK.cad#t#Y.4.8#k.rb#.t#Z#bbHaqbH.XbH.X.XaB.3.3aq.I#baB.IbH.X.I.X.I.X.Xbs.XaJbH.Xap.X.X.IbH#Hbs.I.I.Iap.X.Xbs.X.X#H.Obb.Z.l#m.k",
"bDaJaN#eaYaFbb#kaF.4.raqbH#SbH#hazbRazah.f.Y#4#UaE.1aEar#A.1.1ab.1#Uaz#D#Da7#D#h#hbA#h.jazbA#V#b#x.X.X.3.r.Xap#Hap#b.X.X#d#V#s.U",
"ala7#t#Hbr#0#k.8aF.8.4aq.p#b#Z#m.NaX.NaX#tbP#Hbj#Jbjbx#JaNbj#Jbxbx#m.a#macac#man.Janan#j#j#jar.1araDau#1a7ac#V.3.3.Xap#H#V#J.Pa3",
"#x#tah#l.TaFaFaFakakak#P.4#YbHbP.B.BaVbPbPbPbPbPbP#XbPbPbP#HbP#XbP#XbP#XbP#X#H.Bam#X#X#X#Jbx#m.Jan#jabaD.u.S.S.m#D#Q.r#Haq#Z#n#n",
"#V#taBaJaFaF.8ak#p#pak#paAaZ.X#ybybybybyby.Nby.Nbybyby.h.N.h.N.h.N.N.h.h.NbybP.NbPbPbPbP.NbPbP#XbjbP#X.NbP#X#J.1.m#maqbubu#n#n#n",
"bH#Za1aFaF.8#p#pakak.k#Pak#Cbs#ybh.O#R#ybh.O#ybh#y#y#ybybyby#ybyby#ybybyby.NbybybybyaXby.N.h.N.h.N.h.B.h.N.lbP.B.N#JbLboa3#n#na3",
"az.4.6aF.8aFakak.8ak#k#k.kak#t#R#R#R#R#R#R#Rbh#R#Rbh#Rbh#Rbh#ybh#y#Rbhbh#y#ybh#y#y#ybh#y#y#y.h#y#y.hbyby.N.N.Nby.NaX.7.R#n.7#n#n",
"buaxakakakak.8aF.k#kaPa2axaP.O.wba#u#R#u#R#R#R#R#R#R#R#R#R#R#R#R#R#R.O#R#R#R.O#R#R#R#Rbhbh#Rbhbhbh#y#y#y#y#y#y#y#yby.7.7#F#n#n.7",
"ak.kak.kak.k.k#kaxa2axaxa2bB.T#I.Z#IaTbb.w.w#R#R#R#R#u#R#u#R#u#R#R#R#R#R#R#R#R#R#R#R#R#R#R#R#R#R#R.w#R#ybhbhbh#R#yby.7#FbL.7bL#n",
"#P.kaPakbB#ka2a2axaIaIaI#qaxaWaHbF.o.Z.o.oaY.Z.Z.Z.Zbb.wa#ba#R#Ra#a##Ra#.wba.wbaa##R#R#R#Ra#.w#R#R#R#R#R#R#R#Rbh#R#R.7#F.7#na3a9",
"#P.kaP.k#kaPa2aIaIaI.RaI.R#k#l#r#rbF#rbF#rbF.o#I#I.Z.ZaTbM.ZbMaTbMbMbMbMbb.w#Rba#uba#R#Ra##R#R#R#R#R#Ra##R#y#R#Rbaba.ca9.7a3.va3",
"#PaP.k.ka2#kaxaIaIaI.RaIaIaPaY#Hbsbs.dbs#H#Ham.d#HbsbsbsaVam.daX.daX.dbsaXbsaXbPaVam.NaX#y#Ra#bMbMbMbMbMbM.Z.ZaTaY#I.7a9.7#na3a3",
"aZ#kbBa2axaIa2#3.R#3.R.RaIaxbsbsbsbsbsambsbsbs#HbsamaVaVamaV#HaVbs.daVaVbPbsbPaJ.dbsaVaVbPam.N.NamaXaXambs.Obb#I#I.Za3#n.7a3a3a3",
".4akbBaxaIaIaI#3#3.R.R.R.RaIapambsbsbsbsbsamambsbs#H#Hbs#H#HbsambsambsaXbsaVbsaV.daVaV.dbPaX.d.N.N.daV.d.daXbs.d.dama3.7#n.v.7a3",
"#Yak#ka2aI#3aI.Ra9.Ra9.R.RaI#H.XbsaX.d#Hbsbs#HamambsbsbPbs#H#H.BbsaXbsaVbsbs.daVbsaVbsaVbsambP.NaVaXbsaV#HaXaXaVaXaX.7.7.7a3a3a3",
".ybN#kax#3a9a9a9a9.Ra9.R.RaIbs#Hbsbsbs.d.dambsbsambsbsbsam#HamambsaXbsbPbsaVbsaVbsbPbsbP.NamaV#HbPambPbsaVaVbsaV.dapa3.7.7a3a3a3",
".4bN.k#kaI#3.R.Ra9.R#3.R.R#Fbsbs.XaX.daX#H#H.X#H.daX.dbsaX.l#X#Jacbd#saN#m.lamaXaXbP.N#HbsbP#HbP#HambP#HamamaVbs.Nbs.7a9.7.7a3a3",
".ybNakaFaxaIa9#3a9a9a9.R.R#F.X#H#Vbs#Hbsambsbsbsbsambsam#HbsaVbsbsbs#H.lbgbgambs#H.l#Jam#H#X.l.l#X.N#Jbgbg#m#mbs.daXa9.7#na3a3a3",
"bNbNakakaxax.R#3a9#F.R.RaI#3#H.I#J.Xbsbsbs.I#Hbsbsam#HaV#HaV#H#Hbs#H.laM.VbKbCam#1bl#cbC.laz#1#V#X.daz#1.X.NaV#H.d#H#F#Fa9.7.7.7",
"bNaAbN.8aFa2axaI#F.R#F.R.R#3#H#H#Vam.d#Ham#Hbs.Xam#H.Xam#Hambsambs#H#tbQ.FbE#Z.d.nbJ#g.X.I.YaM.n.3.W.n#Bbw.dbsbsaV.r#F#F#F#F#FbL",
"bN#pbNak.k#k#3aI#3.R.RaIaPax.I#H#V#Ham.Xbs.Xam#H.I#H.Xbsbsbs#Hbsbsam.3##.Q.V.I.Xaj.S.V.X#V#G..a6#b.Sbw.X.V.dam.dam.raIax.T#F#F#F",
"#pbN#pak.8#kbBaxaIaIaIaIaIax#H.Xbg.Xam#H#Hambs.Xambs#Hamambs.Xam#H.I#X.Lay#Q.X.lasbwb#.I#Vah..bJbC#e..a6bvambsamaX.4axax.T.R.T.R",
".8ak.4bN#9aF.kaP#kaxbBaxax#P#Hbsbd#H.Xbsam.Xam#H#H#H.I#H.Xam#Ham.Xbs.XanbAbg.X.Xac.W#m.X.l.WbAbg.l.3#D.W.XbCambsbsaF#kaxaxaxax#3",
".TaFaFaF#k.T#3#F#Fa9bLa9#Fax#H.Xacbs#H.X#Hbsam.X#Hbsbsambsbs.Xambs.X.WaG.C#KbC.X#8bpbd.l#Q#B#4#m.X#j.VbKbCam.Xam.N#9.8aF#k#kaxax",
".T#k.kaFaFaxaxaxbr#FaI#3aI.8#H#Hbd.Xam#Ham.Xambsam.Xambs.Xambs#Ham.X..bwbQ.V.Xbw.Vb.bw#J...n.naBbg.n.VaG.I.dbgbsbs#k#kax.Tbr#F#F",
".T#kaFaFaFaFaxaxaxax#FaxaxaF#Hbs#V#H.Xam.X#H.I#Ham#Hbs#Hbs#H#H#H.I#HaCbwa6ay.X.Y.E#Taj.l.V#xaMbH#V.VaM.V.Ibs#Jbsbsak#k#kaxbr#F#n",
".TaFaxaF#kaFaxaxax#FaIaIaxak.X#H#V.X#H.Xam#H.I.Xbs.X#H.Xbs.X#H#Hbs.I#V#e#Q.X#d#VbRaL#V.X.L.Vbf.3#das..#T.I#Hbsbs#H.8bB.8axaxax#F",
".Tax#k.8#k#k#k.T.Tax#3axaxak.X.X#V#Ham.X#H.I#H#H#H.Xambs#Ham#Hbsam#HbgbAbgbg.X#mac.W.X#XacbAac.l.3.Wacbg#Ham.dbsbHakakaF#kax.T.T",
"aI.6#kbBaFbBaF#kaxaxaxax#kaA.Xam#V#H.X#Ham.X#H.I#Hbs.X#H.I#H.X#H.I.X#BbwaQ.X.3.V###B.l#d#4#1#c.l#J#B.Ybg.I#HaXbsaJ#p.8.8aF#kaxaI",
".T#3#k#k#kaF.k#k#k#kax#k#k.4.X.X#J.X.X#H.X#Ham.Xam.Iambs#H.Xam.X#HaJ#G.V.naJaJa6.C##.Iaz.Vbw.C.Ibw.nblaGamamaXbs#pakak#paF#kax.T",
".Taxax#k#k.k#kaF#k#k#k#kbB.4.l.X#V.X#H.X#H.XambC.X.X#Hbs.Xam#Ham#H.3###g...I#V.VbJ.V.Xa5bwaB.V#xah#O.VbUamamaJ.XbNbN#pakaFaF.6ax",
"ax.T#kaxaFaF.k#kaF#k.8bB.8#t.X#X.X.X#H.Ibs#H.I#H.Xam#H.Xbs#H.X.X#H.X#V#h.L.X.3#Qas#V.X#V#Q.G#V#X#V#TaB.XbC#Jbsbs.4bN#9#pakaF#kax",
"aIaxax#k#k#k#k#k#kbB#k.kak#Y.X.X#d#H#H.X#Jbs#H.Iam#H.Xbs#H.Iamam.XbC#v#B.X#X.lbK#4ac.Xbg#BbDbg.X.X.X.X.Xbs.gam.XaAbNaAbNakakaF#k",
"ax#3axaxax#k#kax.8#k.8aFak.4.X#H.3.X.X.X.X.Xbs.Xbs.Xam.X#H.I.X#H#H#KaQ##.V.XbwaQ.V#O#V#4#gaQ.I#H.X.X#Hambs.Iam#HaAbNbNbN#p.kaFbB",
"#FaI.Taxaxaxaxaxaxax#kbB.k.4#J.X.X.l#H#H.l#J.X#H.X#H.X#H.X#H#H.X.Xas..#N#G.X.V.D.Qay.X.V.C#c.IbC#H#HamambsaXam.4.4bNaAaAaw.8#k#k",
".R.Taxaxaxaxax#kax#k#k#k#kaJ.X.Xbg#Hbs.Xbs.Xamamam#Ham.Xamam.Xam.I.3aL#7#e.l#Zaj.VbH.Xb#bwa6.3#H#HbCam#X#H#X#HaAbNaAbN#p.8aFaF#k",
"br.R#3#3.T.Taxax#kaxax#k.k#9.X.Xbs.X.X.X.l#HbsaX.dbsam.X.X#J#V#dacac.j.G#D#D#D#D#han#j#hbS.WbA#DbAacac#s#H.X.X.yaA.yaA#pakaw.k#k",
"a9#3aIaIaIax.TaIaxax#kbBbB.8.X.r.X#X.X#HbC.X#H.X#H.Xam#H.Xam#H#H.I#H.X#X.X#H.X.X.X.Xbs#H.XbC#H#Hamam.Iam#H#H.X.4.4bNaAbNak.8#k#k",
"#F#Fa9#F#F#3#3ax#3axaxax#k.kakaA#YaJaJ#baJ#bbH.daJ.X.X#b.X.X.I.X#H.X.r#H.X.I.I.X.I#H.X.X.X.Xam.X.Iambs.I#H.X.4bN.4aA.y#pakakaF#k",
"#F.R#3.e#F.T#Fax#3ax#kax.k.kakaZ#Y#Y.paSbvbv#ZbJ#Z#Z#Z.t#Z.tb#.t#eaq#Q.t#Z#Z#Z#e#Z#Z.t#Z#Z#Vaq#daq#d.rbH.4aJ.4.4.4.4aAak#pakaFbB",
"#F#3#F#3.RaI#FaxaIaxaxax#kakak#P#C#Ybn#baSbH.t#Z.tbJ.tbJb#.tbJ.t.t.t.t#ebJ#Z.t#Zaq#Z#Z#Z#Zaq#Zaq#Z.raqapaJ#Y.4.4.4.4bNbNakakaF#k",
"#3.R#3aIbrax#Fax#Faxaxaxa2bBak#P.4#Cbubn#S#Saq#Z#Z.taq#Z.t#ZbJ.t#Z#Z.t.t#ZbJ#ZbJ#Z#Zaqaq#Z.raq#ZbHaqbHapbu#Y#t.4.4.4bNbN#pakaF#k",
"#FaI#3.R#3.Rax#FaxaIaIaxax.k.kakaZ.4#YbubH#b.raqaqaqaq#Z#Zaq#Zaq#Zaq#Z#Zaqaqaqaqaq.raq.r.raq.raq.rbHbH#YaJ#t.4.4.4bNaA#p#p.8.k#k",
"aI#FaIaI#3#F#F.e#3axaxaIbB.k.k#P.4#Y#Y#bbHaSbHbH.r.r.raq.raq.r.raB.raqbHbH.rbH.rbH.r.rbHbHbHbHbH.r#bapap#Y#Y.4.4.4.4bN#pakaF.8aF",
"aI#3aI#3.RaxaIaIaIaIax#kax.k.8#9aZ#Y#Yap#bbubHbHbHaq#SbH.rbHbHaqbHbH.rbHaqbHbHbHaBbHbHbHaq.rbHbHbHapapapap#t.4.4.4aA.4bN#pak.8#k"
};
