/* XPM */
static char *reject[] = {
/* width height num_colors chars_per_pixel */
"    32    32      248            2",
/* colors */
".. c #04070c",
".# c #7c8282",
".a c #840a0c",
".b c #844234",
".c c #cc0204",
".d c #444838",
".e c #64665b",
".f c #b4c2bc",
".g c #cc8284",
".h c #c4241d",
".i c #9ca294",
".j c #846564",
".k c #645644",
".l c #9c8a7c",
".m c #ec0404",
".n c #747668",
".o c #bc4347",
".p c #9c2214",
".q c #a4666c",
".r c #c46561",
".s c #cf3237",
".t c #b4241c",
".u c #8c9284",
".v c #645c4d",
".w c #ec1412",
".x c #545a4b",
".y c #84524c",
".z c #acb5ac",
".A c #9c988c",
".B c #d01210",
".C c #e44440",
".D c #847470",
".E c #a4362d",
".F c #dc2429",
".G c #505e50",
".H c #908674",
".I c #cc524c",
".J c #5c6870",
".K c #dc1512",
".L c #440e0c",
".M c #ec0c0b",
".N c #745a4f",
".O c #744d41",
".P c #ac5557",
".Q c #ec1d1f",
".R c #74787c",
".S c #ac7664",
".T c #747162",
".U c #94524c",
".V c #b43331",
".W c #aca294",
".X c #ac867c",
".Y c #8c949f",
".Z c #9c7564",
".0 c #745546",
".1 c #7c828c",
".2 c #c47478",
".3 c #dc3430",
".4 c #acbac2",
".5 c #944438",
".6 c #d44344",
".7 c #84362c",
".8 c #64623c",
".9 c #dc2e24",
"#. c #14221c",
"## c #bca69c",
"#a c #c42c24",
"#b c #ac96a0",
"#c c #5c5f4c",
"#d c #646e74",
"#e c #dc1e1c",
"#f c #fc0a0a",
"#g c #9c3430",
"#h c #545247",
"#i c #946264",
"#j c #5c584a",
"#k c #747171",
"#l c #b43e34",
"#m c #9ca4b0",
"#n c #b4685c",
"#o c #b42d22",
"#p c #847d87",
"#q c #ac5a5c",
"#r c #fc1e1c",
"#s c #7c7e84",
"#t c #dc3c3e",
"#u c #d64c4c",
"#v c #818a7f",
"#w c #6c6956",
"#x c #dceef4",
"#y c #ac4a3c",
"#z c #919a87",
"#A c #6c5b4a",
"#B c #f41415",
"#C c #845c50",
"#D c #b4b6ac",
"#E c #cc1d18",
"#F c #f40c0b",
"#G c #f41b1c",
"#H c #945a5c",
"#I c #ac8e84",
"#J c #7c5444",
"#K c #943c30",
"#L c #a4adb7",
"#M c #340e0c",
"#N c #8c4c44",
"#O c #9c8f7f",
"#P c #fc0304",
"#Q c #7c7e6c",
"#R c #c46c70",
"#S c #4c5654",
"#T c #a4b3bc",
"#U c #a498a4",
"#V c #ec2424",
"#W c #8c8c91",
"#X c #d45c60",
"#Y c #6c6864",
"#Z c #e4120e",
"#0 c #5c3a2c",
"#1 c #7c4b3c",
"#2 c #b47a84",
"#3 c #bc322c",
"#4 c #929aa9",
"#5 c #c47e74",
"#6 c #5c5f55",
"#7 c #041214",
"#8 c #7c1a0c",
"#9 c #f4b2b4",
"a. c #3c2214",
"a# c #f4524c",
"aa c #bc9a9c",
"ab c #a40204",
"ac c #f4fefc",
"ad c #30322c",
"ae c #e00804",
"af c #cccebc",
"ag c #bc8a84",
"ah c #c43e44",
"ai c #580a04",
"aj c #44524c",
"ak c #9c4e4c",
"al c #aca2ac",
"am c #bc4c50",
"an c #cca69c",
"ao c #bccec4",
"ap c #ec5e54",
"aq c #141a14",
"ar c #cc4e44",
"as c #dc5254",
"at c #bc524c",
"au c #d42e30",
"av c #d46e64",
"aw c #746264",
"ax c #ac9e94",
"ay c #940808",
"az c #d42624",
"aA c #d46264",
"aB c #ec2b29",
"aC c #d43a3c",
"aD c #6c3e2c",
"aE c #d47a74",
"aF c #ac3e3c",
"aG c #8c8e7e",
"aH c #a47e70",
"aI c #946a6c",
"aJ c #546060",
"aK c #ac868c",
"aL c #94767c",
"aM c #b04e54",
"aN c #ac8e9c",
"aO c #b4726c",
"aP c #848a94",
"aQ c #bcaea4",
"aR c #9c9eac",
"aS c #e30e0c",
"aT c #b1aab4",
"aU c #e44a4c",
"aV c #65624e",
"aW c #b49eac",
"aX c #848383",
"aY c #8c6674",
"aZ c #7c7a74",
"a0 c #7c6664",
"a1 c #8c7378",
"a2 c #e42621",
"a3 c #d4565c",
"a4 c #646767",
"a5 c #b45258",
"a6 c #9c5354",
"a7 c #cc7474",
"a8 c #e4363c",
"a9 c #b4bcbe",
"b. c #dc4444",
"b# c #8c3a2c",
"ba c #cc2e34",
"bb c #6c6f65",
"bc c #9c6664",
"bd c #bc6a6c",
"be c #bc2b25",
"bf c #8c7e84",
"bg c #9c3a30",
"bh c #a49084",
"bi c #bc7c7c",
"bj c #c48e89",
"bk c #8c6e74",
"bl c #9c9e84",
"bm c #acaa9c",
"bn c #040e0c",
"bo c #ac665c",
"bp c #8c524c",
"bq c #5c5240",
"br c #4c523c",
"bs c #8c4436",
"bt c #4c4634",
"bu c #cc2624",
"bv c #a48674",
"bw c #949587",
"bx c #7c5c50",
"by c #7c797d",
"bz c #7c7060",
"bA c #9496a4",
"bB c #84858d",
"bC c #9c4539",
"bD c #e42a2c",
"bE c #e41c1a",
"bF c #7c716c",
"bG c #bc3c3c",
"bH c #a4a6b0",
"bI c #b45c54",
"bJ c #e43a3c",
"bK c #d41c17",
"bL c #9c5c60",
"bM c #545758",
"bN c #acb6be",
"bO c #b48a94",
"bP c #9c7278",
"bQ c #b49098",
"bR c #bc6e74",
"bS c #cc4644",
"bT c #bcc4bc",
"bU c #6c5244",
"bV c #f40504",
"bW c #747674",
"bX c #bc261c",
"bY c #746964",
"bZ c #ec161c",
"b0 c #cc565c",
"b1 c #744e4c",
/* pixels */
"bd#u.6b0#2#bbH#L#L#L#TbNbN#T#TbN#L#m#L#L#L#L#bbia3a8#V.Q#t#RbQbH",
".6#G#FbD#XbQalbNbN.4.4.4.4.4bN.zbNbHbNbNaTaa.2#u#V#F#P#P.Qb0aK#U",
"#t#f#P#BbJ#RaWa9#xac#xao.faobT.f.fbTa9aTaaa7b.#G#f#P#P#P.Qb0aKbA",
"#t#B#P#P#VasbjaQ.z.z.i.i.#aX.Rbb#v.iax#I.r#t#G#f#P#P#P#Bb.bRaNaR",
".6#B#P#P#BbDaAag#OaGaG.T.ebb#wbbbb.ebxbCbu#Z#P#P#P#f#GbJavbOalaR",
"aAbD#f#P#P#Bauat.ZaX#Q.8#j.e#c#c#j#A.bbeaS#P#P#PbV.K#abd.XaxbH#m",
"#9aC.Q#P#PbV.MauatbxaV#c#6#6#6#6aVaD.E.BbV#P#PbV.KbebI.Z.H#Q.u#m",
"bU#ga##B#P#P#P#Zbeb#.O.v#6.eaVa4.N.7.h.M#P#PbV.B#o.5.NbY.e.n#w#4",
"#w#C.EbK#B#P#PbVaS.tbsbUaV.e#wawbp.V.K#F#PbVaSbe.bbU#c#c#c#6#Y.Y",
"bybF.yaFaBbV#P#PbV.Kbe#N#C#Y.T#CaFbK#F#P#P.MbubC#J#6#j.x#Y.Y.YbA",
".RbWaw#N.VbKbV#P#PbV#Vap#5anbj#ybu.M#P#PbV#e#l.ybY.e.e.ea4aP#4#4",
".R#k#ka0ak#3.KbV#P#PbV.K.h#l.V.3#G#P#P#PaSbebobhbwaGa4bbbb#s.Y#4",
"#s#s#kby.ja6#a.KbV#P#PbV.w.K#e#B#P#P#P#F.9.rbP.T#waVbb#Y.Tby.Y#4",
"bBbBbBbB.1bkak#3#ZbV#P#PbVbVbV#P#P#P#f#V.pbj.WaGbb#jbbbbbW.naP.Y",
".#aPbBaPbB#p.ja6#3a2#F#P#P#P#P#P#P#f#V#ubi##.iaq#v#w.n#k.R.naX.Y",
".R.YaPaP#W.#.D.j.U#ua2#F#P#P#P#P#P#Bb.aE##a9bm#.#zbz.T.naZaZaX#W",
"aXbB#W#WaPbB.R#k.N.2.C#r#P#P#P#P#P#GaU.g###D#D.8bl#Q.n.naZaZaXbB",
".#bB#v#vaX.##s.A.X.r.3#F#P#P#P#P#P#fa2.IaObh#z.zafblbbbFbzaZ#WbA",
"#s#saX.#aX#s.n.l#nbS.Q#P#P#P#P#P#P#P#Ba2bS#nbv.A#zbwbwbwbw.RaXaP",
"#Q#s#s#s#s.Rbz.Sara2#F#P#P#P#F#F#P#P#P#fbE.6bIaH#O#zbw.u#z.R#sbB",
"#s.#.#.##sbzbc.V#E.m#P#PbV.K#EbK.MbV#P#PbV#Z#abIaH#Obwbwbw.nbyaX",
"bB.#.#aXaZ#i#g#E.M#P#PbV.Kbebg.E.haSbV#P#PbV#Z.hbC.0#A.8aVbWby#s",
"aPaPbB#paIaM#E.m#P#P#P.M.h.5#J#1#KbXaSbV#P#PbVaS.hb#.0aV.v.nby#s",
"aPaP#paLa5ba.MbV#P#Pae#E#K.O#j.k#Jaiay.c.m#P#P.maeaybs.0#6.n#s.#",
"bBbfbPaMba.wbV#P#P.M#E.E#1.k#c#c#j#0.b.t.B.mbV#PbV.B#o#NbkaZ.#bB",
"aL.qamaubZ#P#PbV.M#E.E#1.k#c#c#c.xad.k.L.a.BbV#PbV.m.K#o.U.D#saP",
"#qah.F.wbV#P#P.m#E#g#1.k#c#j#c#c.8...xa..7.tae#P#P#P.m.KbGbLa1bB",
".sbE#F#P#P#Pae#E.E#1#A#j#c#c#c#c.d#7.xaj#Caiab.MbV#P#P.m#ebG#Ha1",
"bZ#P#P#P#P.w#E.E#1#A#j#c#c#j#c.x....#cbnbq#M#8#EaSbV#P#P#Faz.obL",
"#F#P#P#F#Zau#g#1bU#j#cbqbrbtbrbq.dbr.xaJ.vadb1#K#EaS#P#P#P.M#e.o",
".FbEbEazah.PaY#k.J.G#h.x.x.xbM.x.x#c.x.x#c.x.k.Obg.haS#P#P#P.Mba",
"aM.oam.P.qa1by#d.JaJ#SbMbMbM#SbMbMbMbM.x#SbM#S#hb1#gbu#ZbV#PbVau"
};
